<svg xmlns="http://www.w3.org/2000/svg" viewBox="22.532 13.315 217.6 209.1">
	<path d="M 56.145 84.655 c -20.238 13.483 -33.613 36.496 -33.613 62.586 c 0 41.448 33.725 75.168 75.167 75.168 c 12.086 0 23.497 -2.879 33.62 -7.964 l -0.021 -0.011 l -0.13 -0.068 c 10.161 5.134 21.63 8.043 33.771 8.043 c 41.45 0 75.173 -33.72 75.173 -75.168 c 0 -26.113 -13.396 -49.149 -33.663 -62.626 c -2.059 -39.665 -34.973 -71.3 -75.14 -71.3 c -40.106 0 -72.977 31.542 -75.13 71.118 l -0.034 0.222 z m 17.165 -8.664 c 5.779 -26.71 29.585 -46.787 58.001 -46.787 c 32.728 0 59.353 26.626 59.353 59.354 c 0 17.274 -7.424 32.845 -19.238 43.702 l -8.281 -4.747 l -15.918 9.123 l 25.565 14.658 c 16.324 -10.833 28.196 -27.854 32.24 -47.693 c 11.799 10.846 19.203 26.394 19.203 43.642 c 0 32.695 -26.601 59.293 -59.297 59.293 c -28.389 0 -52.215 -20.051 -57.995 -46.732 l 8.458 -4.879 v -18.245 l -25.569 14.694 c 1.14 20.876 10.864 39.506 25.658 52.447 l -0.007 -0.017 c -5.621 1.775 -11.583 2.731 -17.785 2.731 c -32.696 0 -59.292 -26.598 -59.292 -59.293 c 0 -32.696 26.595 -59.298 59.292 -59.298 c 6.207 0 12.187 0.962 17.807 2.734 l 0.037 9.626 l 15.859 9.063 v -29.332 c -10 -5.084 -21.58 -7.965 -33.661 -7.965 c -8.555 0 -16.797 1.443 -24.466 4.09 l 0.036 -0.169 z" fill="#822ef5"/>
</svg>